<svg width="28" height="28" viewBox="0 0 28 28" fill="none" xmlns="http://www.w3.org/2000/svg">
<path d="M22.963 4.2002C22.7319 4.20565 22.5124 4.30231 22.3523 4.46908L13.9293 12.8921L5.50632 4.46908C5.42476 4.38508 5.32718 4.31831 5.21935 4.27271C5.11151 4.22712 4.99563 4.20362 4.87855 4.20361C4.70442 4.20366 4.53425 4.25565 4.38983 4.35295C4.24541 4.45024 4.1333 4.58841 4.06785 4.74978C4.00239 4.91115 3.98657 5.08838 4.02241 5.25879C4.05825 5.4292 4.14411 5.58504 4.26902 5.70638L12.692 14.1294L4.26902 22.5524C4.18504 22.633 4.118 22.7296 4.07181 22.8365C4.02563 22.9433 4.00123 23.0583 4.00005 23.1747C3.99886 23.2912 4.02092 23.4066 4.06492 23.5144C4.10892 23.6222 4.17399 23.7201 4.25631 23.8024C4.33863 23.8847 4.43654 23.9498 4.54432 23.9938C4.6521 24.0378 4.76757 24.0599 4.88398 24.0587C5.00039 24.0575 5.1154 24.0331 5.22226 23.9869C5.32912 23.9407 5.42569 23.8737 5.50632 23.7897L13.9293 15.3667L22.3523 23.7897C22.433 23.8737 22.5296 23.9407 22.6364 23.9869C22.7433 24.0331 22.8583 24.0575 22.9747 24.0587C23.0911 24.0599 23.2066 24.0378 23.3143 23.9938C23.4221 23.9498 23.52 23.8847 23.6024 23.8024C23.6847 23.7201 23.7497 23.6222 23.7937 23.5144C23.8378 23.4066 23.8598 23.2912 23.8586 23.1747C23.8574 23.0583 23.833 22.9433 23.7869 22.8365C23.7407 22.7296 23.6736 22.633 23.5897 22.5524L15.1666 14.1294L23.5897 5.70638C23.7169 5.58425 23.8043 5.42653 23.8403 5.25389C23.8764 5.08124 23.8594 4.90174 23.7916 4.7389C23.7239 4.57606 23.6085 4.4375 23.4607 4.34137C23.3128 4.24524 23.1393 4.19603 22.963 4.2002Z" fill="black"/>
</svg>
