<svg width="12" height="12" viewBox="0 0 12 12" fill="none" xmlns="http://www.w3.org/2000/svg">
<g clip-path="url(#clip0_401_8497)">
<path d="M5.99989 8.00002C5.88307 8.00024 5.76985 7.95956 5.67989 7.88502L2.67989 5.38502C2.57779 5.30015 2.51357 5.17819 2.50138 5.04598C2.48919 4.91376 2.53002 4.78212 2.61489 4.68002C2.69976 4.57791 2.82172 4.5137 2.95393 4.50151C3.08614 4.48932 3.21779 4.53015 3.31989 4.61502L5.99989 6.85502L8.67989 4.69502C8.73104 4.65348 8.78989 4.62247 8.85306 4.60375C8.91623 4.58504 8.98247 4.57899 9.04798 4.58596C9.1135 4.59293 9.17699 4.61278 9.23481 4.64436C9.29263 4.67595 9.34363 4.71865 9.38489 4.77002C9.43068 4.82143 9.46536 4.88174 9.48676 4.94718C9.50816 5.01261 9.51581 5.08176 9.50924 5.1503C9.50266 5.21883 9.48201 5.28526 9.44857 5.34544C9.41513 5.40562 9.36962 5.45824 9.31489 5.50002L6.31489 7.91502C6.22235 7.97777 6.11144 8.0077 5.99989 8.00002Z" fill="#7C9EC9"/>
</g>
<defs>
<clipPath id="clip0_401_8497">
<rect width="12" height="12" fill="white"/>
</clipPath>
</defs>
</svg>
