<svg width="34" height="35" viewBox="0 0 34 35" fill="none" xmlns="http://www.w3.org/2000/svg">
<path d="M11.1104 9.81384C12.0492 8.70234 14.713 6.67885 17.8581 7.47677C21.0033 8.2747 21.2 10.7102 20.9052 11.8282C20.8251 12.1321 19.8842 10.7326 19.7517 11.0166C19.6057 11.3295 20.4597 11.9684 20.9052 12.2487C20.8899 12.9136 21.9562 13.973 22.4912 14.4195C21.9069 14.8419 21.0814 14.2435 20.7418 13.8915C20.1715 13.3765 18.9115 12.2428 18.4349 11.8282C17.9582 11.4136 17.5058 10.5863 17.3391 10.2245C17.198 9.79101 16.4297 9.08241 14.4843 9.71604C12.5388 10.3497 11.5718 12.9201 11.3315 14.1262C10.4779 20.1263 14.5836 22.1739 16.743 22.4477C17.5217 22.4477 18.9213 22.3616 21.5589 20.5703C24.1963 18.7788 26.5475 19.4751 27.355 20.1204C30.7214 22.811 27.7107 27.9139 26.711 29.2731C24.1542 33.2432 17.9351 35.991 12.9752 34.6612C14.3209 34.9506 16.4836 34.5145 17.3391 34.2308C12.6637 34.5986 8.45744 33.152 7.34242 32.1383C10.303 33.2491 14.2696 32.2849 15.5416 31.7178C7.79803 33.1571 3.31811 28.5299 2.04611 26.0365C4.73751 28.2113 8.38375 28.6441 9.87043 28.5886C0.619669 26.6877 -0.387593 20.9198 0.0994262 17.7352C0.916576 21.6509 3.97732 23.2599 5.59799 24.112C5.60535 24.1159 5.63824 24.1345 5.63145 24.1297C-0.674135 19.6159 0.200769 12.4703 1.68104 9.71604C1.14278 11.5935 2.10074 17.3209 7.95002 22.4477C12.1368 26.1175 19.3956 25.0067 20.2035 24.5306C15.3387 25.8903 11.3603 22.7215 9.87043 20.1204C7.54813 15.3328 9.64614 11.3556 11.1104 9.81384ZM12.6653 26.8551C12.9772 27.2103 13.3447 27.5071 13.7263 27.7796C14.5774 28.3798 15.5235 28.836 16.5152 29.136C16.6408 29.1738 16.7695 29.2098 16.8966 29.2425C17.4505 29.3844 18.0151 29.4756 18.5855 29.5126C18.0801 29.7236 17.5746 29.9347 17.0691 30.1457C17.0646 30.1476 17.0442 30.1521 17.0486 30.1543C17.0441 30.1561 17.0641 30.162 17.0685 30.1642C17.0892 30.1746 17.1103 30.1851 17.1322 30.1955C18.562 30.8221 20.2313 30.9444 21.7023 30.3956C22.0656 30.2562 22.4112 30.0726 22.7297 29.8449C22.7332 29.8424 22.7245 29.8258 22.7204 29.8272C22.1657 30.0239 21.5728 30.1997 20.975 30.2881C20.7381 30.321 20.4945 30.3427 20.2518 30.3478C19.6992 30.3539 19.1539 30.2617 18.6424 30.0174C18.2535 29.8316 20.37 29.1642 20.1693 28.7767C20.1726 28.774 20.1643 28.7579 20.1601 28.7591C18.2582 29.2768 16.1216 28.8895 14.5362 27.6844C15.6757 27.7772 16.8156 27.5292 17.888 27.1465C17.8921 27.1451 17.8879 27.1265 17.8836 27.1268C17.1194 27.1762 16.3443 27.2223 15.5724 27.2162C15.2945 27.2121 15.0127 27.2028 14.7352 27.1863C14.0386 27.1404 13.3488 27.0368 12.6761 26.8388C12.6681 26.8365 12.6348 26.8196 12.6403 26.826C12.6324 26.8232 12.6598 26.8487 12.6653 26.8551ZM12.9683 26.9396C13.0866 26.9694 13.2054 26.9966 13.3245 27.0212C13.2002 26.9968 13.0811 26.9696 12.9683 26.9396Z" fill="url(#paint0_linear_399_6462)"/>
<path d="M5.30445 8.77283C8.12023 -2.48392 19.9011 -0.786904 24.5871 2.29502C18.1028 0.177992 11.9846 4.55178 9.80126 7.26931C4.85989 14.0339 7.72891 20.0637 9.54001 22.171C2.71549 15.9896 -0.028287 8.07009 7.08476 2.53959C4.93971 4.20738 5.39489 7.22932 5.30445 8.77283Z" fill="url(#paint1_linear_399_6462)"/>
<path d="M25.5557 8.92303C18.9784 2.32357 12.2868 6.35889 9.79654 9.29932C16.0235 0.5857 26.364 2.27893 29.7618 6.29129C28.4916 5.27602 27.006 5.03759 26.4219 5.04527C30.528 6.18783 31.8195 10.0428 31.952 11.8274C27.32 11.5197 25.1893 7.99349 24.7029 6.26883C24.5461 7.16306 25.206 8.41089 25.5557 8.92303Z" fill="url(#paint2_linear_399_6462)"/>
<path d="M23.3475 33.9726C30.4355 28.8318 30.1999 23.9727 29.8396 21.8282C30.8535 23.3844 31.0518 24.4122 30.2576 27.0937C31.4396 23.1027 32.0742 21.2333 34 20.0333C33.3047 28.546 26.9631 32.1681 23.3475 33.9726Z" fill="url(#paint3_linear_399_6462)"/>
<defs>
<linearGradient id="paint0_linear_399_6462" x1="-7.7786" y1="-7.35189" x2="35.1382" y2="34.1066" gradientUnits="userSpaceOnUse">
<stop stop-color="#B0F7FF"/>
<stop offset="1" stop-color="#9BC6FB" stop-opacity="0.9"/>
</linearGradient>
<linearGradient id="paint1_linear_399_6462" x1="-7.7786" y1="-7.35189" x2="35.1382" y2="34.1066" gradientUnits="userSpaceOnUse">
<stop stop-color="#B0F7FF"/>
<stop offset="1" stop-color="#9BC6FB" stop-opacity="0.9"/>
</linearGradient>
<linearGradient id="paint2_linear_399_6462" x1="-7.7786" y1="-7.35189" x2="35.1382" y2="34.1066" gradientUnits="userSpaceOnUse">
<stop stop-color="#B0F7FF"/>
<stop offset="1" stop-color="#9BC6FB" stop-opacity="0.9"/>
</linearGradient>
<linearGradient id="paint3_linear_399_6462" x1="-7.7786" y1="-7.35189" x2="35.1382" y2="34.1066" gradientUnits="userSpaceOnUse">
<stop stop-color="#B0F7FF"/>
<stop offset="1" stop-color="#9BC6FB" stop-opacity="0.9"/>
</linearGradient>
</defs>
</svg>
