<svg width="28" height="28" viewBox="0 0 28 28" fill="none" xmlns="http://www.w3.org/2000/svg">
<path d="M2.80002 6.5333C2.67634 6.53155 2.55355 6.5544 2.43878 6.60052C2.32401 6.64664 2.21955 6.71511 2.13147 6.80195C2.04339 6.88879 1.97345 6.99227 1.92571 7.10638C1.87798 7.22048 1.85339 7.34294 1.85339 7.46663C1.85339 7.59032 1.87798 7.71278 1.92571 7.82688C1.97345 7.94099 2.04339 8.04447 2.13147 8.13131C2.21955 8.21815 2.32401 8.28662 2.43878 8.33274C2.55355 8.37886 2.67634 8.40171 2.80002 8.39996H25.2C25.3237 8.40171 25.4465 8.37886 25.5613 8.33274C25.676 8.28662 25.7805 8.21815 25.8686 8.13131C25.9566 8.04447 26.0266 7.94099 26.0743 7.82688C26.1221 7.71278 26.1466 7.59032 26.1466 7.46663C26.1466 7.34294 26.1221 7.22048 26.0743 7.10638C26.0266 6.99227 25.9566 6.88879 25.8686 6.80195C25.7805 6.71511 25.676 6.64664 25.5613 6.60052C25.4465 6.5544 25.3237 6.53155 25.2 6.5333H2.80002ZM2.80002 13.0666C2.67634 13.0649 2.55355 13.0877 2.43878 13.1338C2.32401 13.18 2.21955 13.2484 2.13147 13.3353C2.04339 13.4221 1.97345 13.5256 1.92571 13.6397C1.87798 13.7538 1.85339 13.8763 1.85339 14C1.85339 14.1237 1.87798 14.2461 1.92571 14.3602C1.97345 14.4743 2.04339 14.5778 2.13147 14.6646C2.21955 14.7515 2.32401 14.82 2.43878 14.8661C2.55355 14.9122 2.67634 14.935 2.80002 14.9333H25.2C25.3237 14.935 25.4465 14.9122 25.5613 14.8661C25.676 14.82 25.7805 14.7515 25.8686 14.6646C25.9566 14.5778 26.0266 14.4743 26.0743 14.3602C26.1221 14.2461 26.1466 14.1237 26.1466 14C26.1466 13.8763 26.1221 13.7538 26.0743 13.6397C26.0266 13.5256 25.9566 13.4221 25.8686 13.3353C25.7805 13.2484 25.676 13.18 25.5613 13.1338C25.4465 13.0877 25.3237 13.0649 25.2 13.0666H2.80002ZM2.80002 19.6C2.67634 19.5982 2.55355 19.6211 2.43878 19.6672C2.32401 19.7133 2.21955 19.7818 2.13147 19.8686C2.04339 19.9555 1.97345 20.0589 1.92571 20.173C1.87798 20.2871 1.85339 20.4096 1.85339 20.5333C1.85339 20.657 1.87798 20.7794 1.92571 20.8936C1.97345 21.0077 2.04339 21.1111 2.13147 21.198C2.21955 21.2848 2.32401 21.3533 2.43878 21.3994C2.55355 21.4455 2.67634 21.4684 2.80002 21.4666H25.2C25.3237 21.4684 25.4465 21.4455 25.5613 21.3994C25.676 21.3533 25.7805 21.2848 25.8686 21.198C25.9566 21.1111 26.0266 21.0077 26.0743 20.8936C26.1221 20.7794 26.1466 20.657 26.1466 20.5333C26.1466 20.4096 26.1221 20.2871 26.0743 20.173C26.0266 20.0589 25.9566 19.9555 25.8686 19.8686C25.7805 19.7818 25.676 19.7133 25.5613 19.6672C25.4465 19.6211 25.3237 19.5982 25.2 19.6H2.80002Z" fill="black"/>
</svg>
