<svg width="28" height="28" viewBox="0 0 28 28" fill="none" xmlns="http://www.w3.org/2000/svg">
<path d="M2.7999 6.53336C2.67622 6.53161 2.55343 6.55446 2.43866 6.60058C2.32389 6.6467 2.21943 6.71517 2.13135 6.80201C2.04327 6.88885 1.97333 6.99233 1.92559 7.10644C1.87785 7.22054 1.85327 7.343 1.85327 7.46669C1.85327 7.59038 1.87785 7.71284 1.92559 7.82694C1.97333 7.94105 2.04327 8.04453 2.13135 8.13137C2.21943 8.21822 2.32389 8.28669 2.43866 8.33281C2.55343 8.37892 2.67622 8.40177 2.7999 8.40002H25.1999C25.3236 8.40177 25.4464 8.37892 25.5611 8.33281C25.6759 8.28669 25.7804 8.21822 25.8684 8.13137C25.9565 8.04453 26.0265 7.94105 26.0742 7.82694C26.1219 7.71284 26.1465 7.59038 26.1465 7.46669C26.1465 7.343 26.1219 7.22054 26.0742 7.10644C26.0265 6.99233 25.9565 6.88885 25.8684 6.80201C25.7804 6.71517 25.6759 6.6467 25.5611 6.60058C25.4464 6.55446 25.3236 6.53161 25.1999 6.53336H2.7999ZM2.7999 13.0667C2.67622 13.0649 2.55343 13.0878 2.43866 13.1339C2.32389 13.18 2.21943 13.2485 2.13135 13.3353C2.04327 13.4222 1.97333 13.5257 1.92559 13.6398C1.87785 13.7539 1.85327 13.8763 1.85327 14C1.85327 14.1237 1.87785 14.2462 1.92559 14.3603C1.97333 14.4744 2.04327 14.5779 2.13135 14.6647C2.21943 14.7515 2.32389 14.82 2.43866 14.8661C2.55343 14.9123 2.67622 14.9351 2.7999 14.9334H25.1999C25.3236 14.9351 25.4464 14.9123 25.5611 14.8661C25.6759 14.82 25.7804 14.7515 25.8684 14.6647C25.9565 14.5779 26.0265 14.4744 26.0742 14.3603C26.1219 14.2462 26.1465 14.1237 26.1465 14C26.1465 13.8763 26.1219 13.7539 26.0742 13.6398C26.0265 13.5257 25.9565 13.4222 25.8684 13.3353C25.7804 13.2485 25.6759 13.18 25.5611 13.1339C25.4464 13.0878 25.3236 13.0649 25.1999 13.0667H2.7999ZM2.7999 19.6C2.67622 19.5983 2.55343 19.6211 2.43866 19.6672C2.32389 19.7134 2.21943 19.7818 2.13135 19.8687C2.04327 19.9555 1.97333 20.059 1.92559 20.1731C1.87785 20.2872 1.85327 20.4097 1.85327 20.5334C1.85327 20.657 1.87785 20.7795 1.92559 20.8936C1.97333 21.0077 2.04327 21.1112 2.13135 21.198C2.21943 21.2849 2.32389 21.3534 2.43866 21.3995C2.55343 21.4456 2.67622 21.4684 2.7999 21.4667H25.1999C25.3236 21.4684 25.4464 21.4456 25.5611 21.3995C25.6759 21.3534 25.7804 21.2849 25.8684 21.198C25.9565 21.1112 26.0265 21.0077 26.0742 20.8936C26.1219 20.7795 26.1465 20.657 26.1465 20.5334C26.1465 20.4097 26.1219 20.2872 26.0742 20.1731C26.0265 20.059 25.9565 19.9555 25.8684 19.8687C25.7804 19.7818 25.6759 19.7134 25.5611 19.6672C25.4464 19.6211 25.3236 19.5983 25.1999 19.6H2.7999Z" fill="black"/>
</svg>
