<svg width="32" height="32" viewBox="0 0 32 32" fill="none" xmlns="http://www.w3.org/2000/svg">
<rect width="32" height="32" rx="16" fill="#EEF5FD"/>
<path d="M16 15C16.7911 15 17.5645 14.7654 18.2223 14.3259C18.8801 13.8864 19.3928 13.2616 19.6955 12.5307C19.9983 11.7998 20.0775 10.9956 19.9231 10.2196C19.7688 9.44372 19.3878 8.73098 18.8284 8.17157C18.269 7.61216 17.5563 7.2312 16.7804 7.07686C16.0044 6.92252 15.2002 7.00173 14.4693 7.30448C13.7384 7.60723 13.1136 8.11992 12.6741 8.77772C12.2346 9.43552 12 10.2089 12 11C12 12.0609 12.4214 13.0783 13.1716 13.8284C13.9217 14.5786 14.9391 15 16 15Z" fill="#7C9EC9"/>
<path d="M22 25C22.2652 25 22.5196 24.8946 22.7071 24.7071C22.8946 24.5196 23 24.2652 23 24C23 22.1435 22.2625 20.363 20.9497 19.0503C19.637 17.7375 17.8565 17 16 17C14.1435 17 12.363 17.7375 11.0503 19.0503C9.7375 20.363 9 22.1435 9 24C9 24.2652 9.10536 24.5196 9.29289 24.7071C9.48043 24.8946 9.73478 25 10 25H22Z" fill="#7C9EC9"/>
</svg>
