<svg width="30" height="30" viewBox="0 0 30 30" fill="none" xmlns="http://www.w3.org/2000/svg">
<circle cx="15" cy="15" r="15" fill="#EDF3FF"/>
<g clip-path="url(#clip0_34_3527)">
<path d="M15 14C15.7911 14 16.5645 13.7654 17.2223 13.3259C17.8801 12.8864 18.3928 12.2616 18.6955 11.5307C18.9983 10.7998 19.0775 9.99556 18.9231 9.21964C18.7688 8.44372 18.3878 7.73098 17.8284 7.17157C17.269 6.61216 16.5563 6.2312 15.7804 6.07686C15.0044 5.92252 14.2002 6.00173 13.4693 6.30448C12.7384 6.60723 12.1136 7.11992 11.6741 7.77772C11.2346 8.43552 11 9.20888 11 10C11 11.0609 11.4214 12.0783 12.1716 12.8284C12.9217 13.5786 13.9391 14 15 14Z" fill="#5D6DBE"/>
<path d="M21 24C21.2652 24 21.5196 23.8946 21.7071 23.7071C21.8946 23.5196 22 23.2652 22 23C22 21.1435 21.2625 19.363 19.9497 18.0503C18.637 16.7375 16.8565 16 15 16C13.1435 16 11.363 16.7375 10.0503 18.0503C8.7375 19.363 8 21.1435 8 23C8 23.2652 8.10536 23.5196 8.29289 23.7071C8.48043 23.8946 8.73478 24 9 24H21Z" fill="#5D6DBE"/>
</g>
<defs>
<clipPath id="clip0_34_3527">
<rect width="24" height="24" fill="white" transform="translate(3 3)"/>
</clipPath>
</defs>
</svg>
