<svg width="21" height="21" viewBox="0 0 21 21" fill="none" xmlns="http://www.w3.org/2000/svg">
<path d="M18.375 3.9375H16.4062L15.75 2.62498C15.3634 1.86111 15.1626 1.3125 14.4375 1.3125H6.56247C5.83733 1.3125 5.5978 1.93856 5.24996 2.62498L4.5937 3.9375H2.625C1.17533 3.9375 0 5.11283 0 6.56249V17.0625C0 18.5121 1.17533 19.6875 2.625 19.6875H18.375C19.8246 19.6875 21 18.5121 21 17.0625V6.56249C20.9999 5.11286 19.8246 3.9375 18.375 3.9375ZM10.5 17.0625C7.60069 17.0625 5.24999 14.7118 5.24999 11.8125C5.24999 8.91322 7.60069 6.56253 10.5 6.56253C13.3993 6.56253 15.75 8.91322 15.75 11.8125C15.75 14.7118 13.3993 17.0625 10.5 17.0625Z" fill="#6D6D6D"/>
<path d="M10.5 7.875C8.3252 7.875 6.5625 9.6377 6.5625 11.8125C6.5625 13.9874 8.3252 15.75 10.5 15.75C12.6748 15.75 14.4375 13.9874 14.4375 11.8125C14.4375 9.63766 12.6748 7.875 10.5 7.875Z" fill="#6D6D6D"/>
</svg>
