<svg width="28" height="28" viewBox="0 0 28 28" fill="none" xmlns="http://www.w3.org/2000/svg">
<g clip-path="url(#clip0_401_8476)">
<path d="M12.1334 2.79999C6.98978 2.79999 2.80005 6.98972 2.80005 12.1333C2.80005 17.2769 6.98978 21.4667 12.1334 21.4667C14.3701 21.4667 16.4243 20.6724 18.0342 19.3539L23.6068 24.9265C23.6928 25.0161 23.7958 25.0876 23.9098 25.1369C24.0238 25.1862 24.1465 25.2122 24.2706 25.2135C24.3948 25.2147 24.518 25.1912 24.633 25.1443C24.7479 25.0973 24.8524 25.0279 24.9402 24.9401C25.028 24.8523 25.0974 24.7479 25.1443 24.6329C25.1913 24.5179 25.2148 24.3948 25.2135 24.2706C25.2123 24.1464 25.1862 24.0237 25.137 23.9098C25.0877 23.7958 25.0162 23.6928 24.9266 23.6068L19.354 18.0341C20.6724 16.4242 21.4667 14.3701 21.4667 12.1333C21.4667 6.98972 17.277 2.79999 12.1334 2.79999ZM12.1334 4.66665C16.2682 4.66665 19.6 7.99854 19.6 12.1333C19.6 16.2681 16.2682 19.6 12.1334 19.6C7.9986 19.6 4.66672 16.2681 4.66672 12.1333C4.66672 7.99854 7.9986 4.66665 12.1334 4.66665Z" fill="black"/>
</g>
<defs>
<clipPath id="clip0_401_8476">
<rect width="28" height="28" fill="white"/>
</clipPath>
</defs>
</svg>
