<svg width="28" height="28" viewBox="0 0 28 28" fill="none" xmlns="http://www.w3.org/2000/svg">
<g clip-path="url(#clip0_20_1090)">
<path d="M12.1333 2.80005C6.98973 2.80005 2.8 6.98978 2.8 12.1334C2.8 17.277 6.98973 21.4667 12.1333 21.4667C14.3701 21.4667 16.4242 20.6724 18.0341 19.354L23.6068 24.9266C23.6928 25.0162 23.7958 25.0877 23.9098 25.137C24.0238 25.1862 24.1464 25.2123 24.2706 25.2135C24.3948 25.2148 24.518 25.1913 24.6329 25.1443C24.7479 25.0974 24.8523 25.028 24.9401 24.9402C25.0279 24.8524 25.0973 24.7479 25.1443 24.633C25.1912 24.518 25.2147 24.3948 25.2135 24.2706C25.2122 24.1465 25.1862 24.0238 25.1369 23.9098C25.0877 23.7958 25.0161 23.6928 24.9266 23.6068L19.3539 18.0342C20.6724 16.4243 21.4667 14.3701 21.4667 12.1334C21.4667 6.98978 17.2769 2.80005 12.1333 2.80005ZM12.1333 4.66672C16.2681 4.66672 19.6 7.9986 19.6 12.1334C19.6 16.2682 16.2681 19.6 12.1333 19.6C7.99856 19.6 4.66667 16.2682 4.66667 12.1334C4.66667 7.9986 7.99856 4.66672 12.1333 4.66672Z" fill="black"/>
</g>
<defs>
<clipPath id="clip0_20_1090">
<rect width="28" height="28" fill="white"/>
</clipPath>
</defs>
</svg>
